<?xml version="1.0" encoding="UTF-8" standalone="no"?>
<!DOCTYPE svg PUBLIC "-//W3C//DTD SVG 1.1//EN"
 "http://www.w3.org/Graphics/SVG/1.1/DTD/svg11.dtd">
<!-- Generated by graphviz version 2.43.0 (0)
 -->
<!-- Title: %3 Pages: 1 -->
<svg width="583pt" height="354pt"
 viewBox="0.00 0.00 582.56 354.00" xmlns="http://www.w3.org/2000/svg" xmlns:xlink="http://www.w3.org/1999/xlink">
<g id="graph0" class="graph" transform="scale(1 1) rotate(0) translate(4 350)">
<title>%3</title>
<polygon fill="white" stroke="transparent" points="-4,4 -4,-350 578.56,-350 578.56,4 -4,4"/>
<g id="clust1" class="cluster">
<title>cluster_registry</title>
<polygon fill="none" stroke="black" points="0,-8 0,-338 574.56,-338 574.56,-8 0,-8"/>
<text text-anchor="middle" x="287.28" y="-322.8" font-family="Times-Roman" font-size="14.00">registry</text>
</g>
<g id="clust2" class="cluster">
<title>cluster_tags</title>
<polygon fill="none" stroke="black" points="8,-55 8,-184 124,-184 124,-55 8,-55"/>
<text text-anchor="middle" x="66" y="-168.8" font-family="Times-Roman" font-size="14.00">/v2/.../tags/list</text>
</g>
<g id="clust3" class="cluster">
<title>cluster_manifests</title>
<polygon fill="none" stroke="black" points="168,-33 168,-284 344,-284 344,-33 168,-33"/>
<text text-anchor="middle" x="256" y="-268.8" font-family="Times-Roman" font-size="14.00">/v2/.../manifests/&lt;ref&gt;</text>
</g>
<g id="clust4" class="cluster">
<title>cluster_image</title>
<polygon fill="none" stroke="black" points="218,-124 218,-253 293,-253 293,-124 218,-124"/>
<text text-anchor="middle" x="255.5" y="-237.8" font-family="Times-Roman" font-size="14.00">image</text>
</g>
<g id="clust5" class="cluster">
<title>cluster_index</title>
<polygon fill="none" stroke="black" points="193,-41 193,-116 318,-116 318,-41 193,-41"/>
<text text-anchor="middle" x="255.5" y="-100.8" font-family="Times-Roman" font-size="14.00">signature index</text>
</g>
<g id="clust6" class="cluster">
<title>cluster_blobs</title>
<polygon fill="none" stroke="black" points="388,-16 388,-307 566.56,-307 566.56,-16 388,-16"/>
<text text-anchor="middle" x="477.28" y="-291.8" font-family="Times-Roman" font-size="14.00">/v2/.../blobs/&lt;sha256&gt;</text>
</g>
<!-- tag -->
<g id="node1" class="node">
<title>tag</title>
<polygon fill="none" stroke="black" points="93,-153 39,-153 39,-117 93,-117 93,-153"/>
<text text-anchor="middle" x="66" y="-131.3" font-family="Times-Roman" font-size="14.00">tag</text>
</g>
<!-- mconfig -->
<g id="node3" class="node">
<title>mconfig</title>
<polygon fill="none" stroke="black" points="285,-168 226,-168 226,-132 285,-132 285,-168"/>
<text text-anchor="middle" x="255.5" y="-146.3" font-family="Times-Roman" font-size="14.00">config</text>
</g>
<!-- tag&#45;&gt;mconfig -->
<g id="edge8" class="edge">
<title>tag&#45;&gt;mconfig</title>
<path fill="none" stroke="black" stroke-dasharray="5,2" d="M93.07,-137.09C124.85,-139.63 178.85,-143.95 215.56,-146.88"/>
<polygon fill="black" stroke="black" points="207.41,-147.82 218,-147.71 209.65,-141.19 207.41,-147.82"/>
</g>
<!-- tag2 -->
<g id="node2" class="node">
<title>tag2</title>
<polygon fill="none" stroke="black" points="93,-99 39,-99 39,-63 93,-63 93,-99"/>
<text text-anchor="middle" x="66" y="-77.3" font-family="Times-Roman" font-size="14.00">tag</text>
</g>
<!-- imanifest -->
<g id="node5" class="node">
<title>imanifest</title>
<polygon fill="none" stroke="black" points="298,-85 213,-85 213,-49 298,-49 298,-85"/>
<text text-anchor="middle" x="255.5" y="-63.3" font-family="Times-Roman" font-size="14.00">manifests</text>
</g>
<!-- tag2&#45;&gt;imanifest -->
<g id="edge9" class="edge">
<title>tag2&#45;&gt;imanifest</title>
<path fill="none" stroke="black" stroke-dasharray="5,2" d="M93.07,-79.05C116.29,-77.32 151.37,-74.7 182.91,-72.35"/>
<polygon fill="black" stroke="black" points="183.29,-75.83 193,-71.59 182.77,-68.85 183.29,-75.83"/>
</g>
<!-- bconfig -->
<g id="node6" class="node">
<title>bconfig</title>
<polygon fill="none" stroke="black" points="521.34,-150 499.31,-168 455.25,-168 433.22,-150 455.25,-132 499.31,-132 521.34,-150"/>
<text text-anchor="middle" x="477.28" y="-146.3" font-family="Times-Roman" font-size="14.00">config</text>
</g>
<!-- mconfig&#45;&gt;bconfig -->
<g id="edge3" class="edge">
<title>mconfig&#45;&gt;bconfig</title>
<path fill="none" stroke="black" d="M285.23,-150C320.13,-150 379.71,-150 423.07,-150"/>
<polygon fill="black" stroke="black" points="423.17,-153.5 433.17,-150 423.17,-146.5 423.17,-153.5"/>
</g>
<!-- layers -->
<g id="node4" class="node">
<title>layers</title>
<polygon fill="none" stroke="black" points="285,-222 226,-222 226,-186 285,-186 285,-222"/>
<text text-anchor="middle" x="255.5" y="-200.3" font-family="Times-Roman" font-size="14.00">layers</text>
</g>
<!-- l1 -->
<g id="node7" class="node">
<title>l1</title>
<polygon fill="none" stroke="black" points="504.28,-276 501.28,-280 480.28,-280 477.28,-276 450.28,-276 450.28,-240 504.28,-240 504.28,-276"/>
<text text-anchor="middle" x="477.28" y="-254.3" font-family="Times-Roman" font-size="14.00">layer</text>
</g>
<!-- layers&#45;&gt;l1 -->
<g id="edge1" class="edge">
<title>layers&#45;&gt;l1</title>
<path fill="none" stroke="black" d="M285.23,-211.06C324.98,-220.83 396.74,-238.46 440.09,-249.11"/>
<polygon fill="black" stroke="black" points="439.4,-252.54 449.94,-251.53 441.07,-245.74 439.4,-252.54"/>
</g>
<!-- l2 -->
<g id="node8" class="node">
<title>l2</title>
<polygon fill="none" stroke="black" points="504.28,-222 501.28,-226 480.28,-226 477.28,-222 450.28,-222 450.28,-186 504.28,-186 504.28,-222"/>
<text text-anchor="middle" x="477.28" y="-200.3" font-family="Times-Roman" font-size="14.00">layer</text>
</g>
<!-- layers&#45;&gt;l2 -->
<g id="edge2" class="edge">
<title>layers&#45;&gt;l2</title>
<path fill="none" stroke="black" d="M285.23,-204C324.9,-204 396.43,-204 439.82,-204"/>
<polygon fill="black" stroke="black" points="439.94,-207.5 449.94,-204 439.94,-200.5 439.94,-207.5"/>
</g>
<!-- desc1 -->
<g id="node9" class="node">
<title>desc1</title>
<polygon fill="none" stroke="green" points="520.78,-60 433.78,-60 433.78,-24 520.78,-24 520.78,-60"/>
<text text-anchor="middle" x="477.28" y="-38.3" font-family="Times-Roman" font-size="14.00">descriptor</text>
</g>
<!-- imanifest&#45;&gt;desc1 -->
<g id="edge4" class="edge">
<title>imanifest&#45;&gt;desc1</title>
<path fill="none" stroke="green" d="M298.1,-62.27C333.74,-58.21 385.26,-52.35 423.74,-47.98"/>
<polygon fill="green" stroke="green" points="424.19,-51.45 433.73,-46.84 423.4,-44.49 424.19,-51.45"/>
</g>
<!-- desc2 -->
<g id="node10" class="node">
<title>desc2</title>
<polygon fill="none" stroke="green" points="520.78,-114 433.78,-114 433.78,-78 520.78,-78 520.78,-114"/>
<text text-anchor="middle" x="477.28" y="-92.3" font-family="Times-Roman" font-size="14.00">descriptor</text>
</g>
<!-- imanifest&#45;&gt;desc2 -->
<g id="edge5" class="edge">
<title>imanifest&#45;&gt;desc2</title>
<path fill="none" stroke="green" d="M298.1,-72.49C333.74,-77.19 385.26,-83.99 423.74,-89.07"/>
<polygon fill="green" stroke="green" points="423.36,-92.55 433.73,-90.39 424.27,-85.61 423.36,-92.55"/>
</g>
<!-- desc1&#45;&gt;mconfig -->
<g id="edge6" class="edge">
<title>desc1&#45;&gt;mconfig</title>
<path fill="none" stroke="green" d="M433.74,-49.86C418.49,-53.97 401.69,-60.07 388,-69 362.92,-85.35 368.8,-103.23 344,-120 329.24,-129.98 310.83,-136.95 294.72,-141.64"/>
<polygon fill="green" stroke="green" points="301.18,-135.53 293,-142.27 303.59,-142.1 301.18,-135.53"/>
</g>
<!-- desc2&#45;&gt;mconfig -->
<g id="edge7" class="edge">
<title>desc2&#45;&gt;mconfig</title>
<path fill="none" stroke="green" d="M433.57,-106.49C393.42,-116.36 333.85,-131 295.09,-140.52"/>
<polygon fill="green" stroke="green" points="299.3,-133.43 293,-141.94 303.24,-139.22 299.3,-133.43"/>
</g>
</g>
</svg>
